<?xml version="1.0" standalone="no"?>
<!DOCTYPE svg PUBLIC "-//W3C//DTD SVG 20010904//EN"
 "http://www.w3.org/TR/2001/REC-SVG-20010904/DTD/svg10.dtd">
<svg version="1.0" xmlns="http://www.w3.org/2000/svg"
 width="512.000000pt" height="512.000000pt" viewBox="0 0 512.000000 512.000000"
 preserveAspectRatio="xMidYMid meet">

<g transform="translate(0.000000,512.000000) scale(0.100000,-0.100000)"
fill="#000000" stroke="none">
<path d="M1770 4934 c-49 -10 -126 -37 -184 -66 -55 -28 -164 -124 -199 -176
l-15 -24 -54 44 c-319 259 -807 97 -913 -302 -19 -71 -19 -219 0 -290 41 -156
154 -293 300 -366 l80 -41 3 -76 c3 -68 5 -78 29 -97 33 -25 54 -25 87 1 23
18 26 27 26 85 0 64 0 64 28 64 40 0 72 33 72 75 0 50 -28 71 -104 78 -170 16
-309 123 -366 283 -18 52 -21 80 -18 156 2 79 8 103 35 160 125 265 461 331
674 131 l48 -45 -6 -97 c-6 -93 -5 -99 17 -119 52 -48 115 -15 124 65 16 133
50 207 128 286 168 169 447 166 606 -7 71 -78 102 -153 118 -279 9 -80 72
-113 124 -65 22 20 23 26 17 119 l-6 97 48 45 c192 180 493 147 642 -70 95
-137 95 -339 0 -476 -75 -110 -214 -187 -336 -187 -53 0 -85 -28 -85 -75 0
-42 32 -75 72 -75 l28 0 0 -225 0 -225 -930 0 -930 0 0 70 c0 57 -4 74 -20 90
-26 26 -74 26 -100 0 -18 -18 -20 -33 -20 -189 l0 -168 -56 -6 c-104 -11 -208
-93 -234 -185 -13 -47 -13 -127 0 -174 26 -92 130 -174 234 -185 l56 -6 0
-116 c0 -188 44 -305 159 -421 83 -84 138 -116 276 -161 l110 -36 0 -68 0 -69
-230 -88 c-126 -48 -262 -104 -301 -124 -168 -84 -324 -246 -415 -429 -78
-159 -92 -224 -96 -465 -4 -199 -3 -206 19 -244 14 -24 40 -48 67 -63 l44 -23
2106 2 2106 3 53 29 c59 33 108 88 128 144 10 29 13 162 14 603 l0 565 -25 50
c-14 28 -36 61 -49 73 -14 13 -136 98 -273 190 l-248 166 -5 178 c-5 162 -7
180 -24 193 -28 20 -73 17 -96 -6 -19 -19 -20 -33 -20 -214 0 -184 1 -195 23
-227 15 -23 108 -91 276 -205 140 -93 264 -183 275 -198 21 -27 21 -38 21
-564 0 -515 -1 -538 -20 -569 -39 -65 -19 -63 -705 -63 -682 0 -667 -1 -703
59 -15 26 -17 78 -17 573 l0 543 23 27 c12 14 126 95 252 178 127 84 243 164
258 179 63 58 62 48 65 489 l3 402 125 0 124 0 0 -124 c0 -123 0 -125 26 -145
34 -26 54 -26 88 0 26 20 26 21 26 158 0 133 1 138 25 161 56 53 56 55 53 670
l-3 565 -26 55 c-39 82 -90 135 -167 172 -60 30 -75 33 -152 33 -70 0 -95 -5
-141 -27 -79 -36 -133 -89 -171 -166 l-33 -67 -3 -560 c-2 -388 0 -572 8 -598
6 -20 24 -53 41 -71 l29 -34 -2 -398 -3 -399 -248 -166 c-137 -92 -259 -177
-273 -190 -13 -12 -35 -45 -49 -73 -22 -44 -25 -62 -25 -163 0 -62 -3 -113 -6
-113 -4 0 -27 15 -53 34 -87 63 -146 90 -395 186 l-251 96 0 68 0 69 111 36
c136 44 210 88 283 168 109 118 151 233 151 414 l0 116 55 6 c101 10 198 84
231 175 16 45 18 134 4 184 -26 92 -130 174 -235 185 l-55 6 2 335 3 335 80
40 c195 98 315 292 315 512 0 299 -227 546 -525 572 -141 12 -301 -39 -408
-129 l-48 -40 -16 23 c-9 13 -44 52 -78 86 -63 62 -147 112 -234 139 -48 15
-207 26 -251 18z m761 -1972 c3 -101 8 -134 22 -155 43 -67 116 -80 186 -34
l42 28 -3 -283 -3 -283 -32 -68 c-37 -78 -115 -161 -183 -194 -52 -25 -372
-124 -500 -155 -125 -29 -294 -27 -422 6 -210 54 -460 137 -512 170 -64 41
-116 103 -153 182 l-28 59 -3 283 -3 283 42 -28 c70 -46 143 -33 186 34 14 21
19 54 22 155 l3 128 668 0 668 0 3 -128z m-1751 -197 c0 -120 -1 -125 -21
-125 -63 0 -119 59 -119 125 0 66 54 124 118 125 22 0 22 -2 22 -125z m2234
110 c61 -29 85 -115 49 -176 -18 -30 -67 -59 -102 -59 -20 0 -21 5 -21 125 0
120 1 125 21 125 12 0 35 -7 53 -15z m-1363 -1211 c158 -32 399 -19 541 32
l39 13 -3 -47 -3 -47 -220 -77 c-121 -42 -227 -77 -236 -77 -9 -1 -75 32 -147
72 l-131 72 -1 52 0 52 39 -13 c21 -8 76 -22 122 -32z m-166 -226 c41 -23 75
-45 75 -49 0 -3 -82 -35 -182 -69 -101 -35 -197 -71 -213 -81 -17 -10 -41 -36
-53 -57 -22 -39 -22 -47 -22 -384 0 -190 -3 -373 -6 -407 l-7 -61 -68 0 -69 0
0 103 c0 150 -19 196 -80 196 -61 0 -80 -46 -80 -197 l0 -102 -167 2 -168 3
-3 155 c-3 173 9 252 59 371 64 157 215 326 359 403 67 36 509 212 537 215 7
1 47 -18 88 -41z m1063 -44 c271 -103 337 -135 433 -212 116 -92 108 -56 111
-464 2 -194 7 -361 12 -370 7 -16 1 -18 -78 -18 l-86 0 0 103 c0 150 -19 196
-80 196 -61 0 -80 -46 -80 -196 l0 -103 -775 0 -774 0 -1 384 c0 309 2 385 13
394 17 15 1036 371 1062 371 10 1 120 -37 243 -85z"/>
<path d="M1408 2790 c-24 -25 -29 -36 -23 -58 10 -43 34 -62 75 -62 41 0 65
19 75 62 6 22 1 33 -23 58 -17 16 -40 30 -52 30 -12 0 -35 -14 -52 -30z"/>
<path d="M2208 2790 c-24 -25 -29 -36 -23 -58 10 -43 34 -62 75 -62 41 0 65
19 75 62 6 22 1 33 -23 58 -17 16 -40 30 -52 30 -12 0 -35 -14 -52 -30z"/>
<path d="M1414 947 c-52 -45 -26 -127 41 -127 75 0 106 79 51 127 -15 12 -36
23 -46 23 -10 0 -31 -11 -46 -23z"/>
<path d="M1414 657 c-52 -45 -26 -127 41 -127 75 0 106 79 51 127 -15 12 -36
23 -46 23 -10 0 -31 -11 -46 -23z"/>
<path d="M3509 1291 l-24 -19 0 -331 c0 -327 0 -331 22 -352 13 -14 34 -22 53
-22 19 0 40 8 53 22 22 21 22 25 22 352 l0 331 -24 19 c-13 10 -36 19 -51 19
-15 0 -38 -9 -51 -19z"/>
<path d="M3909 1291 l-24 -19 0 -331 c0 -327 0 -331 22 -352 13 -14 34 -22 53
-22 19 0 40 8 53 22 22 21 22 25 22 352 l0 331 -24 19 c-13 10 -36 19 -51 19
-15 0 -38 -9 -51 -19z"/>
<path d="M4309 1291 l-24 -19 0 -331 c0 -327 0 -331 22 -352 13 -14 34 -22 53
-22 19 0 40 8 53 22 22 21 22 25 22 352 l0 331 -24 19 c-13 10 -36 19 -51 19
-15 0 -38 -9 -51 -19z"/>
</g>
</svg>
